<?xml version="1.0" encoding="UTF-8" standalone="no"?>
<svg width="1024" height="1024" viewBox="0 0 1024 1024" version="1.1" xmlns="http://www.w3.org/2000/svg">
    <g>
        <path
                style="fill:#ffffff;fill-opacity:1;stroke:#000000;stroke-width:27"
                d="M 198.07233,1008.3235 C 30.954731,1005.899 27.675199,1005.3552 17.511957,978.38611 13.67583,968.20663 12.528989,827.95981 13.593818,499.23816 L 15.0993,34.482289 28.830353,23.853365 42.561411,13.224442 H 333.32876 c 325.54101,0 309.69929,-1.16859 389.79114,28.753574 120.37634,44.972369 196.35922,135.809484 197.21959,235.775084 0.33931,39.42311 -6.81872,66.23094 -26.96966,101.0052 -14.66427,25.30604 -50.01391,66.18059 -68.16319,78.81672 -5.76927,4.01678 -10.48967,9.38342 -10.48967,11.92586 0,2.54246 15.00516,12.13652 33.34476,21.32017 65.64907,32.8741 121.07519,86.02167 144.35969,138.42503 56.05798,126.16206 -19.09261,269.13462 -178.61074,339.80342 -14.59257,6.46468 -47.65179,17.31646 -73.46492,24.11485 -44.97172,11.84445 -51.38145,12.48255 -153.38364,15.26795 -115.84386,3.1634 -164.28154,3.1498 -388.88979,-0.109 z M 692.12774,863.02818 c 57.41282,-17.81539 107.53613,-56.59551 125.8708,-97.38561 12.97516,-28.86654 11.80285,-78.5159 -2.51295,-106.4315 -23.47022,-45.76656 -72.84164,-80.01932 -138.65965,-96.19885 -29.67123,-7.2938 -44.66854,-8.09969 -151.75375,-8.15437 -131.40473,-0.0672 -175.03264,4.43336 -225.27427,23.23827 -33.22006,12.43391 -83.72497,51.00136 -99.71416,76.14551 -11.33793,17.82965 -11.69272,21.27582 -11.69272,113.57783 0,90.74953 0.46197,95.45401 9.9024,100.84485 8.46569,4.83422 42.94697,5.47537 237.65726,4.419 224.2832,-1.21686 228.1881,-1.37012 256.17704,-10.05513 z M 258.01661,442.53696 c 51.79865,-15.37544 102.98517,-21.2139 219.69821,-25.05937 129.88931,-4.27957 132.32348,-4.56611 170.20931,-20.03558 59.86988,-24.44607 93.66211,-68.32557 94.10682,-122.19874 0.21052,-25.492 -1.8416,-32.62367 -15.62508,-54.30292 -18.23039,-28.6735 -41.02385,-45.74333 -79.10922,-59.24422 -36.79196,-13.04237 -113.98756,-17.08328 -296.58201,-15.52497 -130.9477,1.11754 -145.48749,1.88256 -153.487,8.07585 -8.11619,6.28361 -8.96002,18.7491 -10.35057,152.90306 -0.83273,80.33389 -0.32611,148.4587 1.12582,151.38842 2.2123,4.46396 5.66524,4.321 21.31881,-0.88257 10.27339,-3.41514 32.18612,-10.21868 48.69491,-15.11896 z"
        />
    </g>
</svg>
