<?xml version="1.0" encoding="UTF-8" standalone="no"?>
<!-- Created with Inkscape (http://www.inkscape.org/) -->

<svg
   width="512"
   height="512"
   viewBox="0 0 512 512"
   version="1.1"
   id="svg1"
   xml:space="preserve"
   inkscape:version="1.4.2 (ebf0e940d0, 2025-05-08)"
   sodipodi:docname="icon.svg"
   xmlns:inkscape="http://www.inkscape.org/namespaces/inkscape"
   xmlns:sodipodi="http://sodipodi.sourceforge.net/DTD/sodipodi-0.dtd"
   xmlns="http://www.w3.org/2000/svg"
   xmlns:svg="http://www.w3.org/2000/svg"><sodipodi:namedview
     id="namedview1"
     pagecolor="#505050"
     bordercolor="#ffffff"
     borderopacity="1"
     inkscape:showpageshadow="0"
     inkscape:pageopacity="0"
     inkscape:pagecheckerboard="1"
     inkscape:deskcolor="#505050"
     inkscape:document-units="px"
     inkscape:zoom="2.2677135"
     inkscape:cx="325.8789"
     inkscape:cy="262.81979"
     inkscape:window-width="3491"
     inkscape:window-height="1893"
     inkscape:window-x="0"
     inkscape:window-y="0"
     inkscape:window-maximized="1"
     inkscape:current-layer="layer1" /><defs
     id="defs1" /><g
     inkscape:label="Layer 1"
     inkscape:groupmode="layer"
     id="layer1"><path
       style="fill:#ffffff;fill-opacity:1;stroke:#000000;stroke-width:2.2263;stroke-opacity:1"
       d="M 95.569935,509.62846 C 10.177313,508.38945 8.5015598,508.11157 3.3084148,494.32995 1.3482568,489.12806 0.76225177,417.45964 1.3063508,249.47748 L 2.0756118,11.979601 9.0918125,6.5480465 16.108015,1.116492 H 164.68235 c 166.34275,0 158.24806,-0.59716799 199.17285,14.693549 61.50909,22.981619 100.3343,69.400872 100.77393,120.484939 0.17338,20.14585 -3.48418,33.8451 -13.78077,51.61531 -7.49305,12.9318 -25.55577,33.81937 -34.82957,40.27664 -2.94795,2.05264 -5.35994,4.79508 -5.35994,6.09431 0,1.29924 7.66723,6.20196 17.03828,10.89496 33.54491,16.7992 61.86618,43.95848 73.76396,70.73746 28.64412,64.47088 -9.75583,137.53221 -91.26533,173.64513 -7.45641,3.30355 -24.34879,8.84899 -37.53861,12.32314 -22.97935,6.05268 -26.25455,6.37871 -78.37494,7.80213 -59.1931,1.61656 -83.94347,1.60962 -198.712275,-0.0557 z M 348.01903,435.38015 c 29.33642,-9.10395 54.94809,-28.92124 64.31661,-49.76565 6.62996,-14.75127 6.03095,-40.12291 -1.28404,-54.38824 -11.99266,-23.38746 -37.22013,-40.89118 -70.85138,-49.15919 -15.1612,-3.72725 -22.82443,-4.13907 -77.5421,-4.16702 -67.1443,-0.0343 -89.437,2.26552 -115.10913,11.87514 -16.97456,6.35393 -42.78122,26.06253 -50.951265,38.9116 -5.79338,9.11125 -5.97467,10.8723 -5.97467,58.04014 0,46.3745 0.23606,48.77857 5.05986,51.53338 4.325745,2.47036 21.944755,2.798 121.436505,2.25817 114.60271,-0.62183 116.59802,-0.70015 130.89961,-5.13833 z M 126.19986,220.50223 c 26.46773,-7.8571 52.62266,-10.84065 112.25991,-12.80575 66.36996,-2.18693 67.61376,-2.33335 86.9724,-10.23851 30.59191,-12.49234 47.85883,-34.91548 48.08607,-62.44555 0.10757,-13.02684 -0.94101,-16.67124 -7.984,-27.74969 -9.31525,-14.652627 -20.96209,-23.375597 -40.42269,-30.274769 -18.79971,-6.664869 -58.2446,-8.729837 -151.54548,-7.933516 -66.91077,0.571084 -74.34021,0.962023 -78.427745,4.126888 -4.14716,3.211028 -4.57833,9.5811 -5.28887,78.135977 -0.4255,41.05194 -0.16663,75.86483 0.57527,77.36197 1.13042,2.28116 2.89479,2.2081 10.893335,-0.45101 5.24943,-1.74519 16.44625,-5.22191 24.8818,-7.72604 z"
       id="path2" /></g></svg>
